<mxfile host="app.diagrams.net" agent="Mozilla/5.0 (Windows NT 10.0; Win64; x64) AppleWebKit/537.36 (KHTML, like Gecko) Chrome/130.0.0.0 Safari/537.36" version="24.8.3">
  <diagram name="Page-1" id="kP2gI8R6iKZbIcbOwdc4">
    <mxGraphModel dx="882" dy="548" grid="1" gridSize="10" guides="1" tooltips="1" connect="1" arrows="1" fold="1" page="1" pageScale="1" pageWidth="827" pageHeight="1169" math="0" shadow="0">
      <root>
        <mxCell id="0" />
        <mxCell id="1" parent="0" />
        <mxCell id="cdSOpp5O20mtGIz2mkP2-1" value="User/Customer" style="shape=umlActor;verticalLabelPosition=bottom;verticalAlign=top;html=1;outlineConnect=0;" vertex="1" parent="1">
          <mxGeometry x="140" y="50" width="30" height="60" as="geometry" />
        </mxCell>
        <mxCell id="cdSOpp5O20mtGIz2mkP2-2" value="" style="endArrow=none;dashed=1;html=1;dashPattern=1 3;strokeWidth=2;rounded=0;" edge="1" parent="1">
          <mxGeometry width="50" height="50" relative="1" as="geometry">
            <mxPoint x="160" y="610" as="sourcePoint" />
            <mxPoint x="155" y="130" as="targetPoint" />
          </mxGeometry>
        </mxCell>
        <mxCell id="cdSOpp5O20mtGIz2mkP2-3" value="Login Page" style="rounded=0;whiteSpace=wrap;html=1;" vertex="1" parent="1">
          <mxGeometry x="320" y="80" width="80" height="30" as="geometry" />
        </mxCell>
        <mxCell id="cdSOpp5O20mtGIz2mkP2-4" value="Auth Service" style="rounded=0;whiteSpace=wrap;html=1;" vertex="1" parent="1">
          <mxGeometry x="490" y="620" width="80" height="30" as="geometry" />
        </mxCell>
        <mxCell id="cdSOpp5O20mtGIz2mkP2-5" value="" style="shape=cylinder3;whiteSpace=wrap;html=1;boundedLbl=1;backgroundOutline=1;size=15;" vertex="1" parent="1">
          <mxGeometry x="660" y="50" width="40" height="60" as="geometry" />
        </mxCell>
        <mxCell id="cdSOpp5O20mtGIz2mkP2-6" value="Database" style="text;html=1;align=center;verticalAlign=middle;whiteSpace=wrap;rounded=0;" vertex="1" parent="1">
          <mxGeometry x="650" y="110" width="60" height="30" as="geometry" />
        </mxCell>
        <mxCell id="cdSOpp5O20mtGIz2mkP2-7" value="" style="endArrow=none;dashed=1;html=1;dashPattern=1 3;strokeWidth=2;rounded=0;" edge="1" parent="1">
          <mxGeometry width="50" height="50" relative="1" as="geometry">
            <mxPoint x="360" y="610" as="sourcePoint" />
            <mxPoint x="359.5" y="120" as="targetPoint" />
          </mxGeometry>
        </mxCell>
        <mxCell id="cdSOpp5O20mtGIz2mkP2-8" value="" style="endArrow=none;dashed=1;html=1;dashPattern=1 3;strokeWidth=2;rounded=0;exitX=0.5;exitY=0;exitDx=0;exitDy=0;" edge="1" parent="1" source="cdSOpp5O20mtGIz2mkP2-4">
          <mxGeometry width="50" height="50" relative="1" as="geometry">
            <mxPoint x="530" y="600" as="sourcePoint" />
            <mxPoint x="529.5" y="110" as="targetPoint" />
          </mxGeometry>
        </mxCell>
        <mxCell id="cdSOpp5O20mtGIz2mkP2-9" value="" style="endArrow=none;dashed=1;html=1;dashPattern=1 3;strokeWidth=2;rounded=0;" edge="1" parent="1">
          <mxGeometry width="50" height="50" relative="1" as="geometry">
            <mxPoint x="680" y="610" as="sourcePoint" />
            <mxPoint x="679.5" y="130" as="targetPoint" />
          </mxGeometry>
        </mxCell>
        <mxCell id="cdSOpp5O20mtGIz2mkP2-11" value="" style="endArrow=classic;html=1;rounded=0;" edge="1" parent="1">
          <mxGeometry width="50" height="50" relative="1" as="geometry">
            <mxPoint x="160" y="180" as="sourcePoint" />
            <mxPoint x="360" y="180" as="targetPoint" />
          </mxGeometry>
        </mxCell>
        <mxCell id="cdSOpp5O20mtGIz2mkP2-12" value="Enter Credentials&lt;div&gt;(Username and Password)&lt;/div&gt;" style="text;html=1;align=center;verticalAlign=middle;whiteSpace=wrap;rounded=0;" vertex="1" parent="1">
          <mxGeometry x="150" y="150" width="170" height="30" as="geometry" />
        </mxCell>
        <mxCell id="cdSOpp5O20mtGIz2mkP2-14" value="" style="endArrow=classic;html=1;rounded=0;" edge="1" parent="1">
          <mxGeometry width="50" height="50" relative="1" as="geometry">
            <mxPoint x="360" y="220" as="sourcePoint" />
            <mxPoint x="530" y="220" as="targetPoint" />
          </mxGeometry>
        </mxCell>
        <mxCell id="cdSOpp5O20mtGIz2mkP2-15" value="Validate Credentials" style="text;html=1;align=center;verticalAlign=middle;whiteSpace=wrap;rounded=0;" vertex="1" parent="1">
          <mxGeometry x="360" y="190" width="170" height="30" as="geometry" />
        </mxCell>
        <mxCell id="cdSOpp5O20mtGIz2mkP2-16" value="" style="endArrow=classic;html=1;rounded=0;" edge="1" parent="1">
          <mxGeometry width="50" height="50" relative="1" as="geometry">
            <mxPoint x="530" y="260" as="sourcePoint" />
            <mxPoint x="680" y="260" as="targetPoint" />
          </mxGeometry>
        </mxCell>
        <mxCell id="cdSOpp5O20mtGIz2mkP2-17" value="Query user data" style="text;html=1;align=center;verticalAlign=middle;whiteSpace=wrap;rounded=0;" vertex="1" parent="1">
          <mxGeometry x="520" y="230" width="170" height="30" as="geometry" />
        </mxCell>
        <mxCell id="cdSOpp5O20mtGIz2mkP2-18" value="" style="endArrow=classic;html=1;rounded=0;" edge="1" parent="1">
          <mxGeometry width="50" height="50" relative="1" as="geometry">
            <mxPoint x="680" y="320" as="sourcePoint" />
            <mxPoint x="530" y="320" as="targetPoint" />
          </mxGeometry>
        </mxCell>
        <mxCell id="cdSOpp5O20mtGIz2mkP2-19" value="Return user data" style="text;html=1;align=center;verticalAlign=middle;whiteSpace=wrap;rounded=0;" vertex="1" parent="1">
          <mxGeometry x="520" y="290" width="170" height="30" as="geometry" />
        </mxCell>
        <mxCell id="cdSOpp5O20mtGIz2mkP2-20" value="" style="endArrow=classic;html=1;rounded=0;" edge="1" parent="1">
          <mxGeometry width="50" height="50" relative="1" as="geometry">
            <mxPoint x="530" y="440" as="sourcePoint" />
            <mxPoint x="360" y="440" as="targetPoint" />
          </mxGeometry>
        </mxCell>
        <mxCell id="cdSOpp5O20mtGIz2mkP2-21" value="Return JWT Token" style="text;html=1;align=center;verticalAlign=middle;whiteSpace=wrap;rounded=0;" vertex="1" parent="1">
          <mxGeometry x="360" y="410" width="170" height="30" as="geometry" />
        </mxCell>
        <mxCell id="cdSOpp5O20mtGIz2mkP2-22" value="" style="endArrow=classic;html=1;rounded=0;" edge="1" parent="1">
          <mxGeometry width="50" height="50" relative="1" as="geometry">
            <mxPoint x="360" y="490" as="sourcePoint" />
            <mxPoint x="160" y="490" as="targetPoint" />
          </mxGeometry>
        </mxCell>
        <mxCell id="cdSOpp5O20mtGIz2mkP2-23" value="&lt;div&gt;[Successful Login]&lt;/div&gt;&lt;div&gt;&lt;br&gt;&lt;/div&gt;Display Dashboard" style="text;html=1;align=center;verticalAlign=middle;whiteSpace=wrap;rounded=0;" vertex="1" parent="1">
          <mxGeometry x="170" y="450" width="170" height="30" as="geometry" />
        </mxCell>
        <mxCell id="cdSOpp5O20mtGIz2mkP2-24" value="" style="endArrow=classic;html=1;rounded=0;" edge="1" parent="1">
          <mxGeometry width="50" height="50" relative="1" as="geometry">
            <mxPoint x="360" y="560" as="sourcePoint" />
            <mxPoint x="160" y="560" as="targetPoint" />
          </mxGeometry>
        </mxCell>
        <mxCell id="cdSOpp5O20mtGIz2mkP2-25" value="[Failed Login]&lt;div&gt;&lt;br&gt;&lt;/div&gt;&lt;div&gt;Display error message&lt;/div&gt;" style="text;html=1;align=center;verticalAlign=middle;whiteSpace=wrap;rounded=0;" vertex="1" parent="1">
          <mxGeometry x="170" y="520" width="170" height="30" as="geometry" />
        </mxCell>
        <mxCell id="cdSOpp5O20mtGIz2mkP2-26" value="User/Customer" style="shape=umlActor;verticalLabelPosition=bottom;verticalAlign=top;html=1;outlineConnect=0;" vertex="1" parent="1">
          <mxGeometry x="140" y="620" width="30" height="60" as="geometry" />
        </mxCell>
        <mxCell id="cdSOpp5O20mtGIz2mkP2-27" value="Login Page" style="rounded=0;whiteSpace=wrap;html=1;" vertex="1" parent="1">
          <mxGeometry x="320" y="620" width="80" height="30" as="geometry" />
        </mxCell>
        <mxCell id="cdSOpp5O20mtGIz2mkP2-29" value="" style="shape=cylinder3;whiteSpace=wrap;html=1;boundedLbl=1;backgroundOutline=1;size=15;" vertex="1" parent="1">
          <mxGeometry x="660" y="620" width="40" height="60" as="geometry" />
        </mxCell>
        <mxCell id="cdSOpp5O20mtGIz2mkP2-30" value="Database" style="text;html=1;align=center;verticalAlign=middle;whiteSpace=wrap;rounded=0;" vertex="1" parent="1">
          <mxGeometry x="650" y="680" width="60" height="30" as="geometry" />
        </mxCell>
        <mxCell id="cdSOpp5O20mtGIz2mkP2-31" value="Auth Service" style="rounded=0;whiteSpace=wrap;html=1;" vertex="1" parent="1">
          <mxGeometry x="490" y="80" width="80" height="30" as="geometry" />
        </mxCell>
        <mxCell id="cdSOpp5O20mtGIz2mkP2-32" value="" style="endArrow=classic;html=1;rounded=0;" edge="1" parent="1">
          <mxGeometry width="50" height="50" relative="1" as="geometry">
            <mxPoint x="530" y="390" as="sourcePoint" />
            <mxPoint x="360" y="390" as="targetPoint" />
          </mxGeometry>
        </mxCell>
        <mxCell id="cdSOpp5O20mtGIz2mkP2-33" value="Authenticate Results" style="text;html=1;align=center;verticalAlign=middle;whiteSpace=wrap;rounded=0;" vertex="1" parent="1">
          <mxGeometry x="360" y="360" width="170" height="30" as="geometry" />
        </mxCell>
      </root>
    </mxGraphModel>
  </diagram>
</mxfile>
